<svg version="1.1" xmlns="http://www.w3.org/2000/svg" xmlns:xlink="http://www.w3.org/1999/xlink" width="814.5" height="271.5"><style xmlns="http://www.w3.org/1999/xhtml"></style><defs/><g transform="translate(0,0)"><path fill="none" stroke="none" stroke-dasharray="undefined" vector-effect="non-scaling-stroke"/><g><rect fill="#FFFFFF" stroke="none" x="0" y="0" width="814.5" height="271.5"/></g><g data-width="250" data-height="216" data-layerId="NKmRn29SZFK7" transform="translate(0,0) matrix(1,0,0,1,277.5,35.5)"><g><g transform="translate(0,0) scale(2.5,2.16)"><g><path fill="#FFFFFF" stroke="#333333" stroke-dasharray="1.7976931348623157e+308" vector-effect="non-scaling-stroke" d="M 0 0 L 100 0 Q 100 0 100 0 L 100 100 Q 100 100 100 100 L 0 100 Q 0 100 0 100 L 0 0 Q 0 0 0 0 Z" stroke-miterlimit="10" stroke-width="2"/><g transform="scale(0.4,0.4629629629629629)"/></g></g></g></g><g data-width="125.99999999999999" data-height="141" data-layerId="NKmRn29SZFK7" transform="translate(0,0) matrix(1,0,0,1,668.5,71.5)"><g><g transform="translate(0,0) scale(1.2599999999999998,1.41)"><g><path fill="#FFFFFF" stroke="#333333" stroke-dasharray="1.7976931348623157e+308" vector-effect="non-scaling-stroke" d="M 100 0 L 100 87.5 Q 100 100 50 100 Q 0 100 0 87.5 L 0 0 Q 0 -12.5 50 -12.5 Q 100 -12.5 100 0 Q 100 12.5 50 12.5 Q 0 12.5 0 0" stroke-miterlimit="10" stroke-width="2"/><g transform="scale(0.7936507936507938,0.7092198581560284)"/></g></g></g></g><g transform="matrix(1,0,0,1,672,120)"><g><g><rect fill="rgb(0,0,0)" stroke="none" x="0" y="0" width="119" height="45" fill-opacity="0"/></g></g><g><g><rect fill="rgb(0,0,0)" stroke="none" x="0" y="0" width="119" height="45" fill-opacity="0"/></g></g><g><g><rect fill="rgb(0,0,0)" stroke="none" x="12.387499809265137" y="0" width="95" height="45" fill-opacity="0"/></g></g><g><g><rect fill="rgb(0,0,0)" stroke="none" x="12.387499809265137" y="0" width="95" height="45" fill-opacity="0"/></g><text fill="rgb(0, 0, 0)" stroke="none" font-family="Arial" font-size="20px" font-style="normal" font-weight="normal" text-decoration="" line-height="22.75px" x="12.387499809265137" y="18" data-layerId="NKmRn29SZFK7">Salesforce</text><text fill="rgb(0, 0, 0)" stroke="none" font-family="Arial" font-size="20px" font-style="normal" font-weight="normal" text-decoration="" line-height="22.75px" x="42.962501525878906" y="40.39999961853027" data-layerId="NKmRn29SZFK7">Org</text></g></g><g data-width="141" data-height="50" data-layerId="NKmRn29SZFK7" transform="translate(0,0) matrix(1,0,0,1,527.5,117)"><g><g transform="translate(0,0) scale(1.41,0.5)"><g><path fill="#FFFFFF" stroke="#333333" data-layerId="NKmRn29SZFK7" stroke-dasharray="1.7976931348623157e+308" vector-effect="non-scaling-stroke" d="M 0 50 L 17.73049645390071 0 L 17.73049645390071 30 L 82.26950354609929 30 L 82.26950354609929 0 L 100 50 L 82.26950354609929 100 L 82.26950354609929 70 L 17.73049645390071 70 L 17.73049645390071 100 L 0 50 Z" stroke-miterlimit="10" stroke-width="2"/><g transform="scale(0.7092198581560284,2)"/></g></g></g></g><g data-width="125" data-height="47" data-layerId="NKmRn29SZFK7" transform="translate(0,0) matrix(1,0,0,1,402.5,155.5)"><g><g transform="translate(0,0) scale(1.25,0.47)"><g><path fill="#FFFFFF" stroke="#333333" data-layerId="NKmRn29SZFK7" stroke-dasharray="1.7976931348623157e+308" vector-effect="non-scaling-stroke" d="M 0 0 L 100 0 Q 100 0 100 0 L 100 100 Q 100 100 100 100 L 0 100 Q 0 100 0 100 L 0 0 Q 0 0 0 0 Z" stroke-miterlimit="10" stroke-width="2"/><g transform="scale(0.8,2.127659574468085)"/></g></g></g></g><g transform="matrix(1,0,0,1,405,169)"><g><g><rect fill="rgb(0,0,0)" stroke="none" x="0" y="0" width="120" height="20" fill-opacity="0"/></g></g><g><g><rect fill="rgb(0,0,0)" stroke="none" x="0" y="0" width="120" height="20" fill-opacity="0"/></g></g><g><g><rect fill="rgb(0,0,0)" stroke="none" x="12.975000381469727" y="0" width="94" height="20" fill-opacity="0"/></g></g><g><g><rect fill="rgb(0,0,0)" stroke="none" x="12.975000381469727" y="0" width="94" height="20" fill-opacity="0"/></g><text fill="rgb(0, 0, 0)" stroke="none" font-family="Arial" font-size="18px" font-style="normal" font-weight="normal" text-decoration="" line-height="20.5px" x="12.975000381469727" y="15" data-layerId="NKmRn29SZFK7">Snowfakery</text></g></g><g data-width="125" data-height="49" data-layerId="NKmRn29SZFK7" transform="translate(0,0) matrix(1,0,0,1,402.5,202.5)"><g><g transform="translate(0,0) scale(1.25,0.49)"><g><path fill="#FFFFFF" stroke="#333333" data-layerId="NKmRn29SZFK7" stroke-dasharray="1.7976931348623157e+308" vector-effect="non-scaling-stroke" d="M 0 0 L 100 0 Q 100 0 100 0 L 100 100 Q 100 100 100 100 L 0 100 Q 0 100 0 100 L 0 0 Q 0 0 0 0 Z" stroke-miterlimit="10" stroke-width="2"/><g transform="scale(0.8,2.0408163265306123)"/></g></g></g></g><g transform="matrix(1,0,0,1,405,217)"><g><g><rect fill="rgb(0,0,0)" stroke="none" x="0" y="0" width="120" height="20" fill-opacity="0"/></g></g><g><g><rect fill="rgb(0,0,0)" stroke="none" x="0" y="0" width="120" height="20" fill-opacity="0"/></g></g><g><g><rect fill="rgb(0,0,0)" stroke="none" x="44.5" y="0" width="30" height="20" fill-opacity="0"/></g></g><g><g><rect fill="rgb(0,0,0)" stroke="none" x="44.5" y="0" width="30" height="20" fill-opacity="0"/></g><text fill="rgb(0, 0, 0)" stroke="none" font-family="Arial" font-size="18px" font-style="normal" font-weight="normal" text-decoration="" line-height="20.5px" x="44.5" y="15" data-layerId="NKmRn29SZFK7">CCI</text></g></g><g data-width="125" data-height="47" data-layerId="NKmRn29SZFK7" transform="translate(0,0) matrix(1,0,0,1,402.5,108.5)"><g><g transform="translate(0,0) scale(1.25,0.47)"><g><path fill="#FFFFFF" stroke="#333333" data-layerId="NKmRn29SZFK7" stroke-dasharray="1.7976931348623157e+308" vector-effect="non-scaling-stroke" d="M 0 0 L 100 0 Q 100 0 100 0 L 100 100 Q 100 100 100 100 L 0 100 Q 0 100 0 100 L 0 0 Q 0 0 0 0 Z" stroke-miterlimit="10" stroke-width="2"/><g transform="scale(0.8,2.127659574468085)"/></g></g></g></g><g transform="matrix(1,0,0,1,405,122)"><g><g><rect fill="rgb(0,0,0)" stroke="none" x="0" y="0" width="120" height="20" fill-opacity="0"/></g></g><g><g><rect fill="rgb(0,0,0)" stroke="none" x="0" y="0" width="120" height="20" fill-opacity="0"/></g></g><g><g><rect fill="rgb(0,0,0)" stroke="none" x="7.974999904632568" y="0" width="104" height="20" fill-opacity="0"/></g></g><g><g><rect fill="rgb(0,0,0)" stroke="none" x="7.974999904632568" y="0" width="104" height="20" fill-opacity="0"/></g><text fill="rgb(0, 0, 0)" stroke="none" font-family="Arial" font-size="18px" font-style="normal" font-weight="normal" text-decoration="" line-height="20.5px" x="7.974999904632568" y="15" data-layerId="NKmRn29SZFK7">SnowMakery</text></g></g><g transform="matrix(1,0,0,1,319,58)"><g><g><rect fill="rgb(0,0,0)" stroke="none" x="0" y="0" width="168" height="53" fill-opacity="0"/></g></g><g><g><rect fill="rgb(0,0,0)" stroke="none" x="0" y="0" width="168" height="26" fill-opacity="0"/></g></g><g><g><rect fill="rgb(0,0,0)" stroke="none" x="9.96250057220459" y="0" width="149" height="26" fill-opacity="0"/></g></g><g><g><rect fill="rgb(0,0,0)" stroke="none" x="9.96250057220459" y="0" width="149" height="26" fill-opacity="0"/></g><text fill="rgb(28, 69, 135)" stroke="none" font-family="Arial" font-size="24px" font-style="normal" font-weight="normal" text-decoration="" line-height="27px" x="9.96250057220459" y="21" data-layerId="NKmRn29SZFK7">SnowDockery</text></g></g><g data-width="100" data-height="47" data-layerId="NKmRn29SZFK7" transform="translate(0,0) matrix(1,0,0,1,299.5,108.5)"><g><g transform="translate(0,0) scale(1,0.47)"><g><path fill="#FFFFFF" stroke="#333333" data-layerId="NKmRn29SZFK7" stroke-dasharray="1.7976931348623157e+308" vector-effect="non-scaling-stroke" d="M 100 50 A 50 50 0 1 0 99.99997500000208 50.04999999166668 Z" stroke-miterlimit="10" stroke-width="2"/><g transform="scale(1,2.127659574468085)"/></g></g></g></g><g transform="matrix(1,0,0,1,302,125)"><g><g><rect fill="rgb(0,0,0)" stroke="none" x="0" y="0" width="96" height="14" fill-opacity="0"/></g></g><g><g><rect fill="rgb(0,0,0)" stroke="none" x="0" y="0" width="96" height="14" fill-opacity="0"/></g></g><g><g><rect fill="rgb(0,0,0)" stroke="none" x="16.42500114440918" y="0" width="62" height="14" fill-opacity="0"/></g></g><g><g><rect fill="rgb(0,0,0)" stroke="none" x="16.42500114440918" y="0" width="62" height="14" fill-opacity="0"/></g><text fill="rgb(0, 0, 0)" stroke="none" font-family="Arial" font-size="12px" font-style="normal" font-weight="normal" text-decoration="" line-height="14px" x="16.42500114440918" y="11" data-layerId="NKmRn29SZFK7">Web</text><text fill="rgb(0, 0, 0)" stroke="none" font-family="Arial" font-size="12px" font-style="normal" font-weight="normal" text-decoration="" line-height="14px" x="44.212501525878906" y="11" data-layerId="NKmRn29SZFK7">Server</text></g></g><g data-width="133" data-height="75" data-layerId="NKmRn29SZFK7" transform="translate(0,0) matrix(1,0,0,1,44.5,106)"><g><g transform="translate(0,0) scale(1.33,0.75)"><g><path fill="#FFFFFF" stroke="#333333" data-layerId="NKmRn29SZFK7" stroke-dasharray="1.7976931348623157e+308" vector-effect="non-scaling-stroke" d="M 7.518796992481203 0 L 92.4812030075188 0 Q 100 0 100 13.333333333333334 L 100 86.66666666666667 Q 100 100 92.4812030075188 100 L 7.518796992481203 100 Q 0 100 0 86.66666666666667 L 0 13.333333333333334 Q 0 0 7.518796992481203 0 Z" stroke-miterlimit="10" stroke-width="2"/><g transform="scale(0.7518796992481203,1.3333333333333333)"/></g></g></g></g><g transform="matrix(1,0,0,1,47,134)"><g><g><rect fill="rgb(0,0,0)" stroke="none" x="0" y="0" width="128" height="20" fill-opacity="0"/></g></g><g><g><rect fill="rgb(0,0,0)" stroke="none" x="0" y="0" width="128" height="20" fill-opacity="0"/></g></g><g><g><rect fill="rgb(0,0,0)" stroke="none" x="9.975000381469727" y="0" width="108" height="20" fill-opacity="0"/></g></g><g><g><rect fill="rgb(0,0,0)" stroke="none" x="9.975000381469727" y="0" width="108" height="20" fill-opacity="0"/></g><text fill="rgb(0, 0, 0)" stroke="none" font-family="Arial" font-size="18px" font-style="normal" font-weight="normal" text-decoration="" line-height="20.5px" x="9.975000381469727" y="15" data-layerId="NKmRn29SZFK7">Web</text><text fill="rgb(0, 0, 0)" stroke="none" font-family="Arial" font-size="18px" font-style="normal" font-weight="normal" text-decoration="" line-height="20.5px" x="51.650001525878906" y="15" data-layerId="NKmRn29SZFK7">Browser</text></g></g><g data-width="100" data-height="50" data-layerId="NKmRn29SZFK7" transform="translate(0,0) matrix(1,0,0,1,177.5,117)"><g><g transform="translate(0,0) scale(1,0.5)"><g><path fill="#FFFFFF" stroke="#333333" data-layerId="NKmRn29SZFK7" stroke-dasharray="1.7976931348623157e+308" vector-effect="non-scaling-stroke" d="M 0 50 L 25 0 L 25 30 L 75 30 L 75 0 L 100 50 L 75 100 L 75 70 L 25 70 L 25 100 L 0 50 Z" stroke-miterlimit="10" stroke-width="2"/><g transform="scale(1,2)"/></g></g></g></g></g></svg>